<svg width="585" height="112" viewBox="0 0 585 112" fill="none" xmlns="http://www.w3.org/2000/svg">
<path d="M90.7775 75L81.84 35.3125L74.465 35.0625C71.5483 34.9792 69.5483 35.6042 68.465 36.9375C67.715 37.8958 67.0483 39.5417 66.465 41.875L57.715 75H64.59L66.965 65.4375H81.4025L83.465 75H90.7775ZM72.715 42.375C72.9233 41.9167 73.1733 41.6667 73.465 41.625H76.215L80.09 59.125H68.5275L72.715 42.375ZM119.605 75H124.792V35.3125H118.417V62L100.855 35.3125H95.73V75H102.042V48.3125L119.605 75ZM152.807 41.375C153.349 41.4583 153.641 41.75 153.682 42.25V68.0625C153.599 68.6042 153.307 68.8958 152.807 68.9375H140.807V41.375H152.807ZM133.495 75L150.87 75.3125C157.12 75.4375 160.516 72.8958 161.057 67.6875C161.099 67.1875 161.12 66.6667 161.12 66.125V44.1875C161.12 38.8542 158.724 35.8542 153.932 35.1875C153.016 35.0625 152.037 35 150.995 35L133.495 35.3125V75ZM177.197 75V59.875H185.072C185.531 59.875 185.864 60.1042 186.072 60.5625C186.072 60.6458 186.093 60.7083 186.135 60.75L190.885 75H198.26L194.072 63.125C193.364 61.1667 192.447 59.7917 191.322 59C194.947 57.5 196.781 54.6667 196.822 50.5V44.1875C196.822 38.9792 194.385 36 189.51 35.25C188.593 35.125 187.635 35.0625 186.635 35.0625L169.885 35.3125V75H177.197ZM188.447 41.4375C188.989 41.5208 189.281 41.7917 189.322 42.25V52.75C189.239 53.25 188.947 53.5208 188.447 53.5625H177.197V41.4375H188.447ZM228.212 75V68.625H212.15V58H226.712V51.6875H212.15V41.6875H227.9V35.3125H204.837V75H228.212ZM213.712 32.25L217.65 22.625L224.775 22.6875L218.837 32.25H213.712ZM241.227 51.75C240.727 51.6667 240.457 51.375 240.415 50.875V42.5625C240.498 42.0208 240.769 41.7292 241.227 41.6875H257.727V35.3125L243.165 35.0625C238.04 34.9375 234.811 36.7708 233.477 40.5625C233.102 41.6875 232.915 42.9167 232.915 44.25V49.25C232.915 54.9583 235.915 57.9792 241.915 58.3125C242.332 58.3542 242.727 58.375 243.102 58.375H250.727C251.227 58.4583 251.498 58.75 251.54 59.25V67.75C251.457 68.2917 251.186 68.5833 250.727 68.625H233.727V75L248.852 75.25C254.477 75.4167 257.769 73.2917 258.727 68.875C258.936 68 259.04 67.0833 259.04 66.125V60.875C259.04 56.0833 256.79 53.1667 252.29 52.125C251.207 51.875 250.04 51.75 248.79 51.75H241.227ZM285.195 51.75C284.695 51.6667 284.424 51.375 284.382 50.875V42.5625C284.466 42.0208 284.737 41.7292 285.195 41.6875H301.695V35.3125L287.132 35.0625C282.007 34.9375 278.778 36.7708 277.445 40.5625C277.07 41.6875 276.882 42.9167 276.882 44.25V49.25C276.882 54.9583 279.882 57.9792 285.882 58.3125C286.299 58.3542 286.695 58.375 287.07 58.375H294.695C295.195 58.4583 295.466 58.75 295.507 59.25V67.75C295.424 68.2917 295.153 68.5833 294.695 68.625H277.695V75L292.82 75.25C298.445 75.4167 301.737 73.2917 302.695 68.875C302.903 68 303.007 67.0833 303.007 66.125V60.875C303.007 56.0833 300.757 53.1667 296.257 52.125C295.174 51.875 294.007 51.75 292.757 51.75H285.195ZM338.71 75L329.772 35.3125L322.397 35.0625C319.481 34.9792 317.481 35.6042 316.397 36.9375C315.647 37.8958 314.981 39.5417 314.397 41.875L305.647 75H312.522L314.897 65.4375H329.335L331.397 75H338.71ZM320.647 42.375C320.856 41.9167 321.106 41.6667 321.397 41.625H324.147L328.022 59.125H316.46L320.647 42.375ZM365.6 68.625H351.413V35.3125H344.1V75H365.6V68.625ZM387.052 75.5625C393.386 75.2708 396.636 72.3542 396.802 66.8125V53.3125H384.177V59.4375H389.74V68.1875C389.74 68.6875 389.49 68.9375 388.99 68.9375H377.74C377.24 68.9375 376.99 68.6875 376.99 68.1875V42.125C376.99 41.625 377.24 41.375 377.74 41.375H396.052V34.75H379.24C372.782 34.8333 369.532 37.7292 369.49 43.4375V66.8125C369.49 72.3958 372.448 75.3125 378.365 75.5625C378.657 75.5625 378.948 75.5625 379.24 75.5625H387.052ZM433.255 75L424.318 35.3125L416.943 35.0625C414.026 34.9792 412.026 35.6042 410.943 36.9375C410.193 37.8958 409.526 39.5417 408.943 41.875L400.193 75H407.068L409.443 65.4375H423.88L425.943 75H433.255ZM415.193 42.375C415.401 41.9167 415.651 41.6667 415.943 41.625H418.693L422.568 59.125H411.005L415.193 42.375ZM457.957 41.375C458.499 41.4583 458.791 41.75 458.832 42.25V68.0625C458.749 68.6042 458.457 68.8958 457.957 68.9375H445.957V41.375H457.957ZM438.645 75L456.02 75.3125C462.27 75.4375 465.666 72.8958 466.207 67.6875C466.249 67.1875 466.27 66.6667 466.27 66.125V44.1875C466.27 38.8542 463.874 35.8542 459.082 35.1875C458.166 35.0625 457.187 35 456.145 35L438.645 35.3125V75ZM494.973 41.375C495.431 41.4583 495.681 41.7083 495.723 42.125V68.1875C495.639 68.6458 495.389 68.8958 494.973 68.9375H482.41C481.91 68.9375 481.66 68.6875 481.66 68.1875V42.125C481.66 41.625 481.91 41.375 482.41 41.375H494.973ZM474.16 66.8125C474.16 72.3958 477.118 75.3125 483.035 75.5625C483.327 75.5625 483.618 75.5625 483.91 75.5625H493.473C499.806 75.2708 503.056 72.3542 503.223 66.8125V43.4375C503.139 37.6875 499.889 34.7917 493.473 34.75H483.91C477.452 34.8333 474.202 37.7292 474.16 43.4375V66.8125Z" fill="white"/>
<path d="M581.043 51.9922L543.934 33.8281V43.2031L570.984 55.6055L543.934 68.0078V77.2852L581.043 59.0234V51.9922Z" fill="#0098D3"/>
<path d="M534.103 36.041L518.868 73.6875H524.288L539.425 36.041H534.103Z" fill="#0098D3"/>
<path d="M3.61523 59.0742L40.7246 77.2383V67.8633L13.6738 55.4609L40.7246 43.0586V33.7812L3.61523 52.043V59.0742Z" fill="#0098D3"/>
</svg>
